<mxfile host="app.diagrams.net" modified="2023-12-27T07:45:00.124Z" agent="Mozilla/5.0 (Macintosh; Intel Mac OS X 10_15_7) AppleWebKit/537.36 (KHTML, like Gecko) Chrome/120.0.0.0 Safari/537.36" etag="Cx-DzWpYZnFoMKL8LzY_" version="22.1.12" type="github">
  <diagram name="Page-1" id="ZK5DWsK59enLjVWeMWZs">
    <mxGraphModel dx="1590" dy="1753" grid="1" gridSize="10" guides="1" tooltips="1" connect="1" arrows="1" fold="1" page="1" pageScale="1" pageWidth="1100" pageHeight="850" math="0" shadow="0">
      <root>
        <mxCell id="0" />
        <mxCell id="1" parent="0" />
        <mxCell id="Jq71nEJMqbB4D7MDqIDp-1" value="VPC -A" style="sketch=0;outlineConnect=0;gradientColor=none;html=1;whiteSpace=wrap;fontSize=12;fontStyle=0;shape=mxgraph.aws4.group;grIcon=mxgraph.aws4.group_vpc;strokeColor=#879196;fillColor=none;verticalAlign=top;align=left;spacingLeft=30;fontColor=#879196;dashed=0;" vertex="1" parent="1">
          <mxGeometry x="80" y="120" width="280" height="360" as="geometry" />
        </mxCell>
        <mxCell id="Jq71nEJMqbB4D7MDqIDp-2" value="Firewall Subnets" style="sketch=0;outlineConnect=0;gradientColor=none;html=1;whiteSpace=wrap;fontSize=12;fontStyle=0;shape=mxgraph.aws4.group;grIcon=mxgraph.aws4.group_subnet;strokeColor=#879196;fillColor=none;verticalAlign=top;align=left;spacingLeft=30;fontColor=#879196;dashed=0;" vertex="1" parent="1">
          <mxGeometry x="90" y="200" width="240" height="100" as="geometry" />
        </mxCell>
        <mxCell id="Jq71nEJMqbB4D7MDqIDp-3" value="WorkLoad Subnet" style="sketch=0;outlineConnect=0;gradientColor=none;html=1;whiteSpace=wrap;fontSize=12;fontStyle=0;shape=mxgraph.aws4.group;grIcon=mxgraph.aws4.group_subnet;strokeColor=#879196;fillColor=none;verticalAlign=top;align=left;spacingLeft=30;fontColor=#879196;dashed=0;" vertex="1" parent="1">
          <mxGeometry x="90" y="340" width="240" height="100" as="geometry" />
        </mxCell>
        <mxCell id="Jq71nEJMqbB4D7MDqIDp-4" value="" style="sketch=0;outlineConnect=0;fontColor=#232F3E;gradientColor=none;fillColor=#8C4FFF;strokeColor=none;dashed=0;verticalLabelPosition=bottom;verticalAlign=top;align=center;html=1;fontSize=12;fontStyle=0;aspect=fixed;pointerEvents=1;shape=mxgraph.aws4.internet_gateway;" vertex="1" parent="1">
          <mxGeometry x="170" y="90" width="59" height="59" as="geometry" />
        </mxCell>
        <mxCell id="Jq71nEJMqbB4D7MDqIDp-5" value="" style="outlineConnect=0;dashed=0;verticalLabelPosition=bottom;verticalAlign=top;align=center;html=1;shape=mxgraph.aws3.instances;fillColor=#F58534;gradientColor=none;" vertex="1" parent="1">
          <mxGeometry x="180" y="362" width="60" height="63" as="geometry" />
        </mxCell>
        <mxCell id="Jq71nEJMqbB4D7MDqIDp-7" value="" style="sketch=0;outlineConnect=0;fontColor=#232F3E;gradientColor=none;fillColor=#DD344C;strokeColor=none;dashed=0;verticalLabelPosition=bottom;verticalAlign=top;align=center;html=1;fontSize=12;fontStyle=0;aspect=fixed;pointerEvents=1;shape=mxgraph.aws4.network_firewall_endpoints;" vertex="1" parent="1">
          <mxGeometry x="200" y="222" width="58" height="58" as="geometry" />
        </mxCell>
        <mxCell id="Jq71nEJMqbB4D7MDqIDp-10" style="edgeStyle=orthogonalEdgeStyle;rounded=0;orthogonalLoop=1;jettySize=auto;html=1;exitX=0;exitY=0.5;exitDx=0;exitDy=0;exitPerimeter=0;dashed=1;" edge="1" parent="1" source="Jq71nEJMqbB4D7MDqIDp-8" target="Jq71nEJMqbB4D7MDqIDp-7">
          <mxGeometry relative="1" as="geometry" />
        </mxCell>
        <mxCell id="Jq71nEJMqbB4D7MDqIDp-8" value="" style="sketch=0;points=[[0,0,0],[0.25,0,0],[0.5,0,0],[0.75,0,0],[1,0,0],[0,1,0],[0.25,1,0],[0.5,1,0],[0.75,1,0],[1,1,0],[0,0.25,0],[0,0.5,0],[0,0.75,0],[1,0.25,0],[1,0.5,0],[1,0.75,0]];outlineConnect=0;fontColor=#232F3E;fillColor=#DD344C;strokeColor=#ffffff;dashed=0;verticalLabelPosition=bottom;verticalAlign=top;align=center;html=1;fontSize=12;fontStyle=0;aspect=fixed;shape=mxgraph.aws4.resourceIcon;resIcon=mxgraph.aws4.network_firewall;" vertex="1" parent="1">
          <mxGeometry x="410" y="212" width="78" height="78" as="geometry" />
        </mxCell>
        <mxCell id="Jq71nEJMqbB4D7MDqIDp-11" value="VPC -y" style="sketch=0;outlineConnect=0;gradientColor=none;html=1;whiteSpace=wrap;fontSize=12;fontStyle=0;shape=mxgraph.aws4.group;grIcon=mxgraph.aws4.group_vpc;strokeColor=#879196;fillColor=none;verticalAlign=top;align=left;spacingLeft=30;fontColor=#879196;dashed=0;" vertex="1" parent="1">
          <mxGeometry x="790" y="130" width="280" height="360" as="geometry" />
        </mxCell>
        <mxCell id="Jq71nEJMqbB4D7MDqIDp-12" value="Firewall Subnets" style="sketch=0;outlineConnect=0;gradientColor=none;html=1;whiteSpace=wrap;fontSize=12;fontStyle=0;shape=mxgraph.aws4.group;grIcon=mxgraph.aws4.group_subnet;strokeColor=#879196;fillColor=none;verticalAlign=top;align=left;spacingLeft=30;fontColor=#879196;dashed=0;" vertex="1" parent="1">
          <mxGeometry x="800" y="210" width="240" height="100" as="geometry" />
        </mxCell>
        <mxCell id="Jq71nEJMqbB4D7MDqIDp-13" value="WorkLoad Subnet" style="sketch=0;outlineConnect=0;gradientColor=none;html=1;whiteSpace=wrap;fontSize=12;fontStyle=0;shape=mxgraph.aws4.group;grIcon=mxgraph.aws4.group_subnet;strokeColor=#879196;fillColor=none;verticalAlign=top;align=left;spacingLeft=30;fontColor=#879196;dashed=0;" vertex="1" parent="1">
          <mxGeometry x="800" y="350" width="240" height="100" as="geometry" />
        </mxCell>
        <mxCell id="Jq71nEJMqbB4D7MDqIDp-14" value="" style="sketch=0;outlineConnect=0;fontColor=#232F3E;gradientColor=none;fillColor=#8C4FFF;strokeColor=none;dashed=0;verticalLabelPosition=bottom;verticalAlign=top;align=center;html=1;fontSize=12;fontStyle=0;aspect=fixed;pointerEvents=1;shape=mxgraph.aws4.internet_gateway;" vertex="1" parent="1">
          <mxGeometry x="880" y="100" width="59" height="59" as="geometry" />
        </mxCell>
        <mxCell id="Jq71nEJMqbB4D7MDqIDp-15" value="" style="outlineConnect=0;dashed=0;verticalLabelPosition=bottom;verticalAlign=top;align=center;html=1;shape=mxgraph.aws3.instances;fillColor=#F58534;gradientColor=none;" vertex="1" parent="1">
          <mxGeometry x="890" y="372" width="60" height="63" as="geometry" />
        </mxCell>
        <mxCell id="Jq71nEJMqbB4D7MDqIDp-16" value="" style="sketch=0;outlineConnect=0;fontColor=#232F3E;gradientColor=none;fillColor=#DD344C;strokeColor=none;dashed=0;verticalLabelPosition=bottom;verticalAlign=top;align=center;html=1;fontSize=12;fontStyle=0;aspect=fixed;pointerEvents=1;shape=mxgraph.aws4.network_firewall_endpoints;" vertex="1" parent="1">
          <mxGeometry x="910" y="232" width="58" height="58" as="geometry" />
        </mxCell>
        <mxCell id="Jq71nEJMqbB4D7MDqIDp-17" style="edgeStyle=orthogonalEdgeStyle;rounded=0;orthogonalLoop=1;jettySize=auto;html=1;dashed=1;" edge="1" parent="1">
          <mxGeometry relative="1" as="geometry">
            <mxPoint x="690" y="254" as="sourcePoint" />
            <mxPoint x="910.0652500000001" y="255" as="targetPoint" />
          </mxGeometry>
        </mxCell>
        <mxCell id="Jq71nEJMqbB4D7MDqIDp-18" value="" style="sketch=0;points=[[0,0,0],[0.25,0,0],[0.5,0,0],[0.75,0,0],[1,0,0],[0,1,0],[0.25,1,0],[0.5,1,0],[0.75,1,0],[1,1,0],[0,0.25,0],[0,0.5,0],[0,0.75,0],[1,0.25,0],[1,0.5,0],[1,0.75,0]];outlineConnect=0;fontColor=#232F3E;fillColor=#DD344C;strokeColor=#ffffff;dashed=0;verticalLabelPosition=bottom;verticalAlign=top;align=center;html=1;fontSize=12;fontStyle=0;aspect=fixed;shape=mxgraph.aws4.resourceIcon;resIcon=mxgraph.aws4.network_firewall;" vertex="1" parent="1">
          <mxGeometry x="610" y="210" width="78" height="78" as="geometry" />
        </mxCell>
        <mxCell id="Jq71nEJMqbB4D7MDqIDp-20" value="AWS Network Firewall" style="text;strokeColor=none;align=center;fillColor=none;html=1;verticalAlign=middle;whiteSpace=wrap;rounded=0;" vertex="1" parent="1">
          <mxGeometry x="590" y="290" width="140" height="30" as="geometry" />
        </mxCell>
        <mxCell id="Jq71nEJMqbB4D7MDqIDp-21" value="AWS Network Firewall" style="text;strokeColor=none;align=center;fillColor=none;html=1;verticalAlign=middle;whiteSpace=wrap;rounded=0;" vertex="1" parent="1">
          <mxGeometry x="379" y="290" width="140" height="30" as="geometry" />
        </mxCell>
        <mxCell id="Jq71nEJMqbB4D7MDqIDp-22" value="EndPoint" style="text;strokeColor=none;align=center;fillColor=none;html=1;verticalAlign=middle;whiteSpace=wrap;rounded=0;" vertex="1" parent="1">
          <mxGeometry x="159" y="280" width="140" height="30" as="geometry" />
        </mxCell>
        <mxCell id="Jq71nEJMqbB4D7MDqIDp-23" value="Endpoint" style="text;strokeColor=none;align=center;fillColor=none;html=1;verticalAlign=middle;whiteSpace=wrap;rounded=0;" vertex="1" parent="1">
          <mxGeometry x="908" y="280" width="60" height="30" as="geometry" />
        </mxCell>
        <mxCell id="Jq71nEJMqbB4D7MDqIDp-27" style="edgeStyle=orthogonalEdgeStyle;rounded=0;orthogonalLoop=1;jettySize=auto;html=1;exitX=1;exitY=0.5;exitDx=0;exitDy=0;exitPerimeter=0;" edge="1" parent="1" source="Jq71nEJMqbB4D7MDqIDp-24" target="Jq71nEJMqbB4D7MDqIDp-18">
          <mxGeometry relative="1" as="geometry" />
        </mxCell>
        <mxCell id="Jq71nEJMqbB4D7MDqIDp-24" value="" style="sketch=0;points=[[0,0,0],[0.25,0,0],[0.5,0,0],[0.75,0,0],[1,0,0],[0,1,0],[0.25,1,0],[0.5,1,0],[0.75,1,0],[1,1,0],[0,0.25,0],[0,0.5,0],[0,0.75,0],[1,0.25,0],[1,0.5,0],[1,0.75,0]];outlineConnect=0;fontColor=#232F3E;fillColor=#DD344C;strokeColor=#ffffff;dashed=0;verticalLabelPosition=bottom;verticalAlign=top;align=center;html=1;fontSize=12;fontStyle=0;aspect=fixed;shape=mxgraph.aws4.resourceIcon;resIcon=mxgraph.aws4.firewall_manager;" vertex="1" parent="1">
          <mxGeometry x="500" y="-20" width="78" height="78" as="geometry" />
        </mxCell>
        <mxCell id="Jq71nEJMqbB4D7MDqIDp-26" style="edgeStyle=orthogonalEdgeStyle;rounded=0;orthogonalLoop=1;jettySize=auto;html=1;exitX=0;exitY=0.5;exitDx=0;exitDy=0;exitPerimeter=0;" edge="1" parent="1" source="Jq71nEJMqbB4D7MDqIDp-24" target="Jq71nEJMqbB4D7MDqIDp-8">
          <mxGeometry relative="1" as="geometry" />
        </mxCell>
        <mxCell id="Jq71nEJMqbB4D7MDqIDp-25" value="AWS Firewall Manager" style="text;strokeColor=none;align=center;fillColor=none;html=1;verticalAlign=middle;whiteSpace=wrap;rounded=0;" vertex="1" parent="1">
          <mxGeometry x="470" y="60" width="140" height="30" as="geometry" />
        </mxCell>
        <mxCell id="Jq71nEJMqbB4D7MDqIDp-29" value="" style="endArrow=classic;html=1;rounded=0;strokeColor=#FF3333;strokeWidth=4;" edge="1" parent="1">
          <mxGeometry width="50" height="50" relative="1" as="geometry">
            <mxPoint x="219.5" y="345" as="sourcePoint" />
            <mxPoint x="219.5" y="275" as="targetPoint" />
          </mxGeometry>
        </mxCell>
        <mxCell id="Jq71nEJMqbB4D7MDqIDp-30" value="Use case : Distributed&amp;nbsp; Deployment&amp;nbsp;" style="whiteSpace=wrap;html=1;" vertex="1" parent="1">
          <mxGeometry x="170" y="-130" width="550" height="60" as="geometry" />
        </mxCell>
        <mxCell id="Jq71nEJMqbB4D7MDqIDp-31" value="VPC -A" style="sketch=0;outlineConnect=0;gradientColor=none;html=1;whiteSpace=wrap;fontSize=12;fontStyle=0;shape=mxgraph.aws4.group;grIcon=mxgraph.aws4.group_vpc;strokeColor=#879196;fillColor=none;verticalAlign=top;align=left;spacingLeft=30;fontColor=#879196;dashed=0;" vertex="1" parent="1">
          <mxGeometry x="90" y="831" width="280" height="360" as="geometry" />
        </mxCell>
        <mxCell id="Jq71nEJMqbB4D7MDqIDp-32" value="Firewall Subnets" style="sketch=0;outlineConnect=0;gradientColor=none;html=1;whiteSpace=wrap;fontSize=12;fontStyle=0;shape=mxgraph.aws4.group;grIcon=mxgraph.aws4.group_subnet;strokeColor=#879196;fillColor=none;verticalAlign=top;align=left;spacingLeft=30;fontColor=#879196;dashed=0;" vertex="1" parent="1">
          <mxGeometry x="100" y="911" width="240" height="100" as="geometry" />
        </mxCell>
        <mxCell id="Jq71nEJMqbB4D7MDqIDp-33" value="WorkLoad Subnet" style="sketch=0;outlineConnect=0;gradientColor=none;html=1;whiteSpace=wrap;fontSize=12;fontStyle=0;shape=mxgraph.aws4.group;grIcon=mxgraph.aws4.group_subnet;strokeColor=#879196;fillColor=none;verticalAlign=top;align=left;spacingLeft=30;fontColor=#879196;dashed=0;" vertex="1" parent="1">
          <mxGeometry x="100" y="1051" width="240" height="100" as="geometry" />
        </mxCell>
        <mxCell id="Jq71nEJMqbB4D7MDqIDp-34" value="" style="sketch=0;outlineConnect=0;fontColor=#232F3E;gradientColor=none;fillColor=#8C4FFF;strokeColor=none;dashed=0;verticalLabelPosition=bottom;verticalAlign=top;align=center;html=1;fontSize=12;fontStyle=0;aspect=fixed;pointerEvents=1;shape=mxgraph.aws4.internet_gateway;" vertex="1" parent="1">
          <mxGeometry x="180" y="801" width="59" height="59" as="geometry" />
        </mxCell>
        <mxCell id="Jq71nEJMqbB4D7MDqIDp-35" value="" style="outlineConnect=0;dashed=0;verticalLabelPosition=bottom;verticalAlign=top;align=center;html=1;shape=mxgraph.aws3.instances;fillColor=#F58534;gradientColor=none;" vertex="1" parent="1">
          <mxGeometry x="190" y="1073" width="60" height="63" as="geometry" />
        </mxCell>
        <mxCell id="Jq71nEJMqbB4D7MDqIDp-36" value="" style="sketch=0;outlineConnect=0;fontColor=#232F3E;gradientColor=none;fillColor=#DD344C;strokeColor=none;dashed=0;verticalLabelPosition=bottom;verticalAlign=top;align=center;html=1;fontSize=12;fontStyle=0;aspect=fixed;pointerEvents=1;shape=mxgraph.aws4.network_firewall_endpoints;" vertex="1" parent="1">
          <mxGeometry x="210" y="933" width="58" height="58" as="geometry" />
        </mxCell>
        <mxCell id="Jq71nEJMqbB4D7MDqIDp-37" style="edgeStyle=orthogonalEdgeStyle;rounded=0;orthogonalLoop=1;jettySize=auto;html=1;exitX=0;exitY=0.5;exitDx=0;exitDy=0;exitPerimeter=0;dashed=1;" edge="1" parent="1" source="Jq71nEJMqbB4D7MDqIDp-38" target="Jq71nEJMqbB4D7MDqIDp-36">
          <mxGeometry relative="1" as="geometry" />
        </mxCell>
        <mxCell id="Jq71nEJMqbB4D7MDqIDp-38" value="" style="sketch=0;points=[[0,0,0],[0.25,0,0],[0.5,0,0],[0.75,0,0],[1,0,0],[0,1,0],[0.25,1,0],[0.5,1,0],[0.75,1,0],[1,1,0],[0,0.25,0],[0,0.5,0],[0,0.75,0],[1,0.25,0],[1,0.5,0],[1,0.75,0]];outlineConnect=0;fontColor=#232F3E;fillColor=#DD344C;strokeColor=#ffffff;dashed=0;verticalLabelPosition=bottom;verticalAlign=top;align=center;html=1;fontSize=12;fontStyle=0;aspect=fixed;shape=mxgraph.aws4.resourceIcon;resIcon=mxgraph.aws4.network_firewall;" vertex="1" parent="1">
          <mxGeometry x="420" y="923" width="78" height="78" as="geometry" />
        </mxCell>
        <mxCell id="Jq71nEJMqbB4D7MDqIDp-39" value="VPC -y" style="sketch=0;outlineConnect=0;gradientColor=none;html=1;whiteSpace=wrap;fontSize=12;fontStyle=0;shape=mxgraph.aws4.group;grIcon=mxgraph.aws4.group_vpc;strokeColor=#879196;fillColor=none;verticalAlign=top;align=left;spacingLeft=30;fontColor=#879196;dashed=0;" vertex="1" parent="1">
          <mxGeometry x="800" y="841" width="280" height="360" as="geometry" />
        </mxCell>
        <mxCell id="Jq71nEJMqbB4D7MDqIDp-40" value="Firewall Subnets" style="sketch=0;outlineConnect=0;gradientColor=none;html=1;whiteSpace=wrap;fontSize=12;fontStyle=0;shape=mxgraph.aws4.group;grIcon=mxgraph.aws4.group_subnet;strokeColor=#879196;fillColor=none;verticalAlign=top;align=left;spacingLeft=30;fontColor=#879196;dashed=0;" vertex="1" parent="1">
          <mxGeometry x="810" y="921" width="240" height="100" as="geometry" />
        </mxCell>
        <mxCell id="Jq71nEJMqbB4D7MDqIDp-41" value="WorkLoad Subnet" style="sketch=0;outlineConnect=0;gradientColor=none;html=1;whiteSpace=wrap;fontSize=12;fontStyle=0;shape=mxgraph.aws4.group;grIcon=mxgraph.aws4.group_subnet;strokeColor=#879196;fillColor=none;verticalAlign=top;align=left;spacingLeft=30;fontColor=#879196;dashed=0;" vertex="1" parent="1">
          <mxGeometry x="810" y="1061" width="240" height="100" as="geometry" />
        </mxCell>
        <mxCell id="Jq71nEJMqbB4D7MDqIDp-42" value="" style="sketch=0;outlineConnect=0;fontColor=#232F3E;gradientColor=none;fillColor=#8C4FFF;strokeColor=none;dashed=0;verticalLabelPosition=bottom;verticalAlign=top;align=center;html=1;fontSize=12;fontStyle=0;aspect=fixed;pointerEvents=1;shape=mxgraph.aws4.internet_gateway;" vertex="1" parent="1">
          <mxGeometry x="890" y="811" width="59" height="59" as="geometry" />
        </mxCell>
        <mxCell id="Jq71nEJMqbB4D7MDqIDp-43" value="" style="outlineConnect=0;dashed=0;verticalLabelPosition=bottom;verticalAlign=top;align=center;html=1;shape=mxgraph.aws3.instances;fillColor=#F58534;gradientColor=none;" vertex="1" parent="1">
          <mxGeometry x="900" y="1083" width="60" height="63" as="geometry" />
        </mxCell>
        <mxCell id="Jq71nEJMqbB4D7MDqIDp-44" value="" style="sketch=0;outlineConnect=0;fontColor=#232F3E;gradientColor=none;fillColor=#DD344C;strokeColor=none;dashed=0;verticalLabelPosition=bottom;verticalAlign=top;align=center;html=1;fontSize=12;fontStyle=0;aspect=fixed;pointerEvents=1;shape=mxgraph.aws4.network_firewall_endpoints;" vertex="1" parent="1">
          <mxGeometry x="920" y="943" width="58" height="58" as="geometry" />
        </mxCell>
        <mxCell id="Jq71nEJMqbB4D7MDqIDp-45" style="edgeStyle=orthogonalEdgeStyle;rounded=0;orthogonalLoop=1;jettySize=auto;html=1;dashed=1;" edge="1" parent="1">
          <mxGeometry relative="1" as="geometry">
            <mxPoint x="700" y="965" as="sourcePoint" />
            <mxPoint x="920.0652500000001" y="966" as="targetPoint" />
          </mxGeometry>
        </mxCell>
        <mxCell id="Jq71nEJMqbB4D7MDqIDp-46" value="" style="sketch=0;points=[[0,0,0],[0.25,0,0],[0.5,0,0],[0.75,0,0],[1,0,0],[0,1,0],[0.25,1,0],[0.5,1,0],[0.75,1,0],[1,1,0],[0,0.25,0],[0,0.5,0],[0,0.75,0],[1,0.25,0],[1,0.5,0],[1,0.75,0]];outlineConnect=0;fontColor=#232F3E;fillColor=#DD344C;strokeColor=#ffffff;dashed=0;verticalLabelPosition=bottom;verticalAlign=top;align=center;html=1;fontSize=12;fontStyle=0;aspect=fixed;shape=mxgraph.aws4.resourceIcon;resIcon=mxgraph.aws4.network_firewall;" vertex="1" parent="1">
          <mxGeometry x="620" y="921" width="78" height="78" as="geometry" />
        </mxCell>
        <mxCell id="Jq71nEJMqbB4D7MDqIDp-47" value="AWS Network Firewall" style="text;strokeColor=none;align=center;fillColor=none;html=1;verticalAlign=middle;whiteSpace=wrap;rounded=0;" vertex="1" parent="1">
          <mxGeometry x="600" y="1001" width="140" height="30" as="geometry" />
        </mxCell>
        <mxCell id="Jq71nEJMqbB4D7MDqIDp-48" value="AWS Network Firewall" style="text;strokeColor=none;align=center;fillColor=none;html=1;verticalAlign=middle;whiteSpace=wrap;rounded=0;" vertex="1" parent="1">
          <mxGeometry x="389" y="1001" width="140" height="30" as="geometry" />
        </mxCell>
        <mxCell id="Jq71nEJMqbB4D7MDqIDp-49" value="EndPoint" style="text;strokeColor=none;align=center;fillColor=none;html=1;verticalAlign=middle;whiteSpace=wrap;rounded=0;" vertex="1" parent="1">
          <mxGeometry x="169" y="991" width="140" height="30" as="geometry" />
        </mxCell>
        <mxCell id="Jq71nEJMqbB4D7MDqIDp-50" value="Endpoint" style="text;strokeColor=none;align=center;fillColor=none;html=1;verticalAlign=middle;whiteSpace=wrap;rounded=0;" vertex="1" parent="1">
          <mxGeometry x="918" y="991" width="60" height="30" as="geometry" />
        </mxCell>
        <mxCell id="Jq71nEJMqbB4D7MDqIDp-51" style="edgeStyle=orthogonalEdgeStyle;rounded=0;orthogonalLoop=1;jettySize=auto;html=1;exitX=1;exitY=0.5;exitDx=0;exitDy=0;exitPerimeter=0;" edge="1" parent="1" source="Jq71nEJMqbB4D7MDqIDp-52" target="Jq71nEJMqbB4D7MDqIDp-46">
          <mxGeometry relative="1" as="geometry" />
        </mxCell>
        <mxCell id="Jq71nEJMqbB4D7MDqIDp-52" value="" style="sketch=0;points=[[0,0,0],[0.25,0,0],[0.5,0,0],[0.75,0,0],[1,0,0],[0,1,0],[0.25,1,0],[0.5,1,0],[0.75,1,0],[1,1,0],[0,0.25,0],[0,0.5,0],[0,0.75,0],[1,0.25,0],[1,0.5,0],[1,0.75,0]];outlineConnect=0;fontColor=#232F3E;fillColor=#DD344C;strokeColor=#ffffff;dashed=0;verticalLabelPosition=bottom;verticalAlign=top;align=center;html=1;fontSize=12;fontStyle=0;aspect=fixed;shape=mxgraph.aws4.resourceIcon;resIcon=mxgraph.aws4.firewall_manager;" vertex="1" parent="1">
          <mxGeometry x="510" y="691" width="78" height="78" as="geometry" />
        </mxCell>
        <mxCell id="Jq71nEJMqbB4D7MDqIDp-53" style="edgeStyle=orthogonalEdgeStyle;rounded=0;orthogonalLoop=1;jettySize=auto;html=1;exitX=0;exitY=0.5;exitDx=0;exitDy=0;exitPerimeter=0;" edge="1" parent="1" source="Jq71nEJMqbB4D7MDqIDp-52" target="Jq71nEJMqbB4D7MDqIDp-38">
          <mxGeometry relative="1" as="geometry" />
        </mxCell>
        <mxCell id="Jq71nEJMqbB4D7MDqIDp-54" value="AWS Firewall Manager" style="text;strokeColor=none;align=center;fillColor=none;html=1;verticalAlign=middle;whiteSpace=wrap;rounded=0;" vertex="1" parent="1">
          <mxGeometry x="480" y="771" width="140" height="30" as="geometry" />
        </mxCell>
        <mxCell id="Jq71nEJMqbB4D7MDqIDp-55" value="" style="endArrow=classic;html=1;rounded=0;strokeColor=#FF3333;strokeWidth=4;" edge="1" parent="1">
          <mxGeometry width="50" height="50" relative="1" as="geometry">
            <mxPoint x="229.5" y="1056" as="sourcePoint" />
            <mxPoint x="229.5" y="986" as="targetPoint" />
          </mxGeometry>
        </mxCell>
        <mxCell id="Jq71nEJMqbB4D7MDqIDp-56" value="Use case : East, West&amp;nbsp;&amp;nbsp;" style="whiteSpace=wrap;html=1;" vertex="1" parent="1">
          <mxGeometry x="180" y="581" width="550" height="60" as="geometry" />
        </mxCell>
        <mxCell id="Jq71nEJMqbB4D7MDqIDp-57" value="VPC -A" style="sketch=0;outlineConnect=0;gradientColor=none;html=1;whiteSpace=wrap;fontSize=12;fontStyle=0;shape=mxgraph.aws4.group;grIcon=mxgraph.aws4.group_vpc;strokeColor=#879196;fillColor=none;verticalAlign=top;align=left;spacingLeft=30;fontColor=#879196;dashed=0;" vertex="1" parent="1">
          <mxGeometry x="40" y="1632" width="360" height="228" as="geometry" />
        </mxCell>
        <mxCell id="Jq71nEJMqbB4D7MDqIDp-58" value="Private Subnets" style="sketch=0;outlineConnect=0;gradientColor=none;html=1;whiteSpace=wrap;fontSize=12;fontStyle=0;shape=mxgraph.aws4.group;grIcon=mxgraph.aws4.group_subnet;strokeColor=#879196;fillColor=none;verticalAlign=top;align=left;spacingLeft=30;fontColor=#879196;dashed=0;" vertex="1" parent="1">
          <mxGeometry x="50" y="1717" width="140" height="123" as="geometry" />
        </mxCell>
        <mxCell id="Jq71nEJMqbB4D7MDqIDp-60" value="" style="sketch=0;outlineConnect=0;fontColor=#232F3E;gradientColor=none;fillColor=#8C4FFF;strokeColor=none;dashed=0;verticalLabelPosition=bottom;verticalAlign=top;align=center;html=1;fontSize=12;fontStyle=0;aspect=fixed;pointerEvents=1;shape=mxgraph.aws4.internet_gateway;" vertex="1" parent="1">
          <mxGeometry x="130" y="1607" width="59" height="59" as="geometry" />
        </mxCell>
        <mxCell id="Jq71nEJMqbB4D7MDqIDp-86" style="rounded=0;orthogonalLoop=1;jettySize=auto;html=1;exitX=1;exitY=0.5;exitDx=0;exitDy=0;exitPerimeter=0;strokeWidth=4;strokeColor=#82b366;fillColor=#d5e8d4;" edge="1" parent="1" source="Jq71nEJMqbB4D7MDqIDp-61" target="Jq71nEJMqbB4D7MDqIDp-85">
          <mxGeometry relative="1" as="geometry" />
        </mxCell>
        <mxCell id="Jq71nEJMqbB4D7MDqIDp-61" value="" style="outlineConnect=0;dashed=0;verticalLabelPosition=bottom;verticalAlign=top;align=center;html=1;shape=mxgraph.aws3.instances;fillColor=#F58534;gradientColor=none;" vertex="1" parent="1">
          <mxGeometry x="80" y="1745" width="60" height="63" as="geometry" />
        </mxCell>
        <mxCell id="Jq71nEJMqbB4D7MDqIDp-65" value="Outbound VPC" style="sketch=0;outlineConnect=0;gradientColor=none;html=1;whiteSpace=wrap;fontSize=12;fontStyle=0;shape=mxgraph.aws4.group;grIcon=mxgraph.aws4.group_vpc;strokeColor=#879196;fillColor=none;verticalAlign=top;align=left;spacingLeft=30;fontColor=#879196;dashed=0;" vertex="1" parent="1">
          <mxGeometry x="680" y="1800" width="560" height="270" as="geometry" />
        </mxCell>
        <mxCell id="Jq71nEJMqbB4D7MDqIDp-66" value="&lt;font color=&quot;#ff3333&quot;&gt;Firewall Subnets&lt;/font&gt;" style="sketch=0;outlineConnect=0;gradientColor=none;html=1;whiteSpace=wrap;fontSize=12;fontStyle=0;shape=mxgraph.aws4.group;grIcon=mxgraph.aws4.group_subnet;strokeColor=#879196;fillColor=none;verticalAlign=top;align=left;spacingLeft=30;fontColor=#879196;dashed=0;" vertex="1" parent="1">
          <mxGeometry x="877.5" y="1879.5" width="140" height="100" as="geometry" />
        </mxCell>
        <mxCell id="Jq71nEJMqbB4D7MDqIDp-68" value="" style="sketch=0;outlineConnect=0;fontColor=#232F3E;gradientColor=none;fillColor=#8C4FFF;strokeColor=none;dashed=0;verticalLabelPosition=bottom;verticalAlign=top;align=center;html=1;fontSize=12;fontStyle=0;aspect=fixed;pointerEvents=1;shape=mxgraph.aws4.internet_gateway;" vertex="1" parent="1">
          <mxGeometry x="918" y="1770" width="59" height="59" as="geometry" />
        </mxCell>
        <mxCell id="Jq71nEJMqbB4D7MDqIDp-70" value="" style="sketch=0;outlineConnect=0;fontColor=#232F3E;gradientColor=none;fillColor=#DD344C;strokeColor=none;dashed=0;verticalLabelPosition=bottom;verticalAlign=top;align=center;html=1;fontSize=12;fontStyle=0;aspect=fixed;pointerEvents=1;shape=mxgraph.aws4.network_firewall_endpoints;" vertex="1" parent="1">
          <mxGeometry x="920" y="1910" width="58" height="58" as="geometry" />
        </mxCell>
        <mxCell id="Jq71nEJMqbB4D7MDqIDp-76" value="Endpoint" style="text;strokeColor=none;align=center;fillColor=none;html=1;verticalAlign=middle;whiteSpace=wrap;rounded=0;" vertex="1" parent="1">
          <mxGeometry x="910" y="1958" width="60" height="30" as="geometry" />
        </mxCell>
        <mxCell id="Jq71nEJMqbB4D7MDqIDp-78" value="" style="sketch=0;points=[[0,0,0],[0.25,0,0],[0.5,0,0],[0.75,0,0],[1,0,0],[0,1,0],[0.25,1,0],[0.5,1,0],[0.75,1,0],[1,1,0],[0,0.25,0],[0,0.5,0],[0,0.75,0],[1,0.25,0],[1,0.5,0],[1,0.75,0]];outlineConnect=0;fontColor=#232F3E;fillColor=#DD344C;strokeColor=#ffffff;dashed=0;verticalLabelPosition=bottom;verticalAlign=top;align=center;html=1;fontSize=12;fontStyle=0;aspect=fixed;shape=mxgraph.aws4.resourceIcon;resIcon=mxgraph.aws4.firewall_manager;" vertex="1" parent="1">
          <mxGeometry x="760" y="1447" width="78" height="78" as="geometry" />
        </mxCell>
        <mxCell id="Jq71nEJMqbB4D7MDqIDp-80" value="AWS Firewall Manager" style="text;strokeColor=none;align=center;fillColor=none;html=1;verticalAlign=middle;whiteSpace=wrap;rounded=0;" vertex="1" parent="1">
          <mxGeometry x="880" y="2171" width="140" height="30" as="geometry" />
        </mxCell>
        <mxCell id="Jq71nEJMqbB4D7MDqIDp-82" value="Use case : Centralized Deployment&amp;nbsp;&amp;nbsp;" style="whiteSpace=wrap;html=1;" vertex="1" parent="1">
          <mxGeometry x="130" y="1387" width="550" height="60" as="geometry" />
        </mxCell>
        <mxCell id="Jq71nEJMqbB4D7MDqIDp-83" value="Private Subnet" style="sketch=0;outlineConnect=0;gradientColor=none;html=1;whiteSpace=wrap;fontSize=12;fontStyle=0;shape=mxgraph.aws4.group;grIcon=mxgraph.aws4.group_subnet;strokeColor=#879196;fillColor=none;verticalAlign=top;align=left;spacingLeft=30;fontColor=#879196;dashed=0;" vertex="1" parent="1">
          <mxGeometry x="239" y="1717" width="140" height="123" as="geometry" />
        </mxCell>
        <mxCell id="Jq71nEJMqbB4D7MDqIDp-85" value="" style="sketch=0;outlineConnect=0;fontColor=#232F3E;gradientColor=none;fillColor=#8C4FFF;strokeColor=none;dashed=0;verticalLabelPosition=bottom;verticalAlign=top;align=center;html=1;fontSize=12;fontStyle=0;aspect=fixed;pointerEvents=1;shape=mxgraph.aws4.elastic_network_interface;" vertex="1" parent="1">
          <mxGeometry x="271" y="1746" width="59" height="59" as="geometry" />
        </mxCell>
        <mxCell id="Jq71nEJMqbB4D7MDqIDp-87" value="VPC -X" style="sketch=0;outlineConnect=0;gradientColor=none;html=1;whiteSpace=wrap;fontSize=12;fontStyle=0;shape=mxgraph.aws4.group;grIcon=mxgraph.aws4.group_vpc;strokeColor=#879196;fillColor=none;verticalAlign=top;align=left;spacingLeft=30;fontColor=#879196;dashed=0;" vertex="1" parent="1">
          <mxGeometry x="40" y="1925" width="360" height="228" as="geometry" />
        </mxCell>
        <mxCell id="Jq71nEJMqbB4D7MDqIDp-88" value="Private Subnets" style="sketch=0;outlineConnect=0;gradientColor=none;html=1;whiteSpace=wrap;fontSize=12;fontStyle=0;shape=mxgraph.aws4.group;grIcon=mxgraph.aws4.group_subnet;strokeColor=#879196;fillColor=none;verticalAlign=top;align=left;spacingLeft=30;fontColor=#879196;dashed=0;" vertex="1" parent="1">
          <mxGeometry x="50" y="2010" width="140" height="130" as="geometry" />
        </mxCell>
        <mxCell id="Jq71nEJMqbB4D7MDqIDp-89" value="" style="sketch=0;outlineConnect=0;fontColor=#232F3E;gradientColor=none;fillColor=#8C4FFF;strokeColor=none;dashed=0;verticalLabelPosition=bottom;verticalAlign=top;align=center;html=1;fontSize=12;fontStyle=0;aspect=fixed;pointerEvents=1;shape=mxgraph.aws4.internet_gateway;" vertex="1" parent="1">
          <mxGeometry x="130" y="1900" width="59" height="59" as="geometry" />
        </mxCell>
        <mxCell id="Jq71nEJMqbB4D7MDqIDp-90" style="rounded=0;orthogonalLoop=1;jettySize=auto;html=1;exitX=1;exitY=0.5;exitDx=0;exitDy=0;exitPerimeter=0;strokeWidth=4;strokeColor=#82b366;fillColor=#d5e8d4;" edge="1" parent="1" source="Jq71nEJMqbB4D7MDqIDp-91" target="Jq71nEJMqbB4D7MDqIDp-93">
          <mxGeometry relative="1" as="geometry" />
        </mxCell>
        <mxCell id="Jq71nEJMqbB4D7MDqIDp-91" value="" style="outlineConnect=0;dashed=0;verticalLabelPosition=bottom;verticalAlign=top;align=center;html=1;shape=mxgraph.aws3.instances;fillColor=#F58534;gradientColor=none;" vertex="1" parent="1">
          <mxGeometry x="80" y="2047" width="60" height="63" as="geometry" />
        </mxCell>
        <mxCell id="Jq71nEJMqbB4D7MDqIDp-92" value="Private Subnet" style="sketch=0;outlineConnect=0;gradientColor=none;html=1;whiteSpace=wrap;fontSize=12;fontStyle=0;shape=mxgraph.aws4.group;grIcon=mxgraph.aws4.group_subnet;strokeColor=#879196;fillColor=none;verticalAlign=top;align=left;spacingLeft=30;fontColor=#879196;dashed=0;" vertex="1" parent="1">
          <mxGeometry x="239" y="2010" width="140" height="130" as="geometry" />
        </mxCell>
        <mxCell id="Jq71nEJMqbB4D7MDqIDp-93" value="" style="sketch=0;outlineConnect=0;fontColor=#232F3E;gradientColor=none;fillColor=#8C4FFF;strokeColor=none;dashed=0;verticalLabelPosition=bottom;verticalAlign=top;align=center;html=1;fontSize=12;fontStyle=0;aspect=fixed;pointerEvents=1;shape=mxgraph.aws4.elastic_network_interface;" vertex="1" parent="1">
          <mxGeometry x="271" y="2049" width="59" height="59" as="geometry" />
        </mxCell>
        <mxCell id="Jq71nEJMqbB4D7MDqIDp-101" style="rounded=0;orthogonalLoop=1;jettySize=auto;html=1;exitX=0;exitY=0.75;exitDx=0;exitDy=0;exitPerimeter=0;strokeWidth=3;strokeColor=#6666FF;endArrow=none;endFill=0;" edge="1" parent="1" source="Jq71nEJMqbB4D7MDqIDp-94" target="Jq71nEJMqbB4D7MDqIDp-93">
          <mxGeometry relative="1" as="geometry" />
        </mxCell>
        <mxCell id="Jq71nEJMqbB4D7MDqIDp-102" style="rounded=0;orthogonalLoop=1;jettySize=auto;html=1;jumpStyle=line;strokeWidth=3;entryX=0;entryY=0.25;entryDx=0;entryDy=0;entryPerimeter=0;fillColor=#d5e8d4;strokeColor=#82b366;" edge="1" parent="1" source="Jq71nEJMqbB4D7MDqIDp-85" target="Jq71nEJMqbB4D7MDqIDp-94">
          <mxGeometry relative="1" as="geometry">
            <mxPoint x="580" y="1820" as="targetPoint" />
          </mxGeometry>
        </mxCell>
        <mxCell id="Jq71nEJMqbB4D7MDqIDp-103" style="rounded=0;orthogonalLoop=1;jettySize=auto;html=1;exitX=1;exitY=0.5;exitDx=0;exitDy=0;exitPerimeter=0;fillColor=#d5e8d4;strokeColor=#82b366;strokeWidth=3;" edge="1" parent="1" source="Jq71nEJMqbB4D7MDqIDp-94" target="Jq71nEJMqbB4D7MDqIDp-96">
          <mxGeometry relative="1" as="geometry" />
        </mxCell>
        <mxCell id="Jq71nEJMqbB4D7MDqIDp-94" value="" style="sketch=0;points=[[0,0,0],[0.25,0,0],[0.5,0,0],[0.75,0,0],[1,0,0],[0,1,0],[0.25,1,0],[0.5,1,0],[0.75,1,0],[1,1,0],[0,0.25,0],[0,0.5,0],[0,0.75,0],[1,0.25,0],[1,0.5,0],[1,0.75,0]];outlineConnect=0;fontColor=#232F3E;fillColor=#8C4FFF;strokeColor=#ffffff;dashed=0;verticalLabelPosition=bottom;verticalAlign=top;align=center;html=1;fontSize=12;fontStyle=0;aspect=fixed;shape=mxgraph.aws4.resourceIcon;resIcon=mxgraph.aws4.transit_gateway;" vertex="1" parent="1">
          <mxGeometry x="510" y="1901" width="78" height="78" as="geometry" />
        </mxCell>
        <mxCell id="Jq71nEJMqbB4D7MDqIDp-95" value="Private Subnet" style="sketch=0;outlineConnect=0;gradientColor=none;html=1;whiteSpace=wrap;fontSize=12;fontStyle=0;shape=mxgraph.aws4.group;grIcon=mxgraph.aws4.group_subnet;strokeColor=#879196;fillColor=none;verticalAlign=top;align=left;spacingLeft=30;fontColor=#879196;dashed=0;" vertex="1" parent="1">
          <mxGeometry x="698" y="1879.5" width="140" height="110.5" as="geometry" />
        </mxCell>
        <mxCell id="Jq71nEJMqbB4D7MDqIDp-96" value="" style="sketch=0;outlineConnect=0;fontColor=#232F3E;gradientColor=none;fillColor=#8C4FFF;strokeColor=none;dashed=0;verticalLabelPosition=bottom;verticalAlign=top;align=center;html=1;fontSize=12;fontStyle=0;aspect=fixed;pointerEvents=1;shape=mxgraph.aws4.elastic_network_interface;" vertex="1" parent="1">
          <mxGeometry x="730" y="1909" width="59" height="59" as="geometry" />
        </mxCell>
        <mxCell id="Jq71nEJMqbB4D7MDqIDp-97" value="TGW ENI" style="text;strokeColor=none;align=center;fillColor=none;html=1;verticalAlign=middle;whiteSpace=wrap;rounded=0;" vertex="1" parent="1">
          <mxGeometry x="230.5" y="1805" width="140" height="30" as="geometry" />
        </mxCell>
        <mxCell id="Jq71nEJMqbB4D7MDqIDp-98" value="TGW ENI" style="text;strokeColor=none;align=center;fillColor=none;html=1;verticalAlign=middle;whiteSpace=wrap;rounded=0;" vertex="1" parent="1">
          <mxGeometry x="698" y="1960" width="140" height="30" as="geometry" />
        </mxCell>
        <mxCell id="Jq71nEJMqbB4D7MDqIDp-99" value="TGW ENI" style="text;strokeColor=none;align=center;fillColor=none;html=1;verticalAlign=middle;whiteSpace=wrap;rounded=0;" vertex="1" parent="1">
          <mxGeometry x="230.5" y="2108" width="140" height="30" as="geometry" />
        </mxCell>
        <mxCell id="Jq71nEJMqbB4D7MDqIDp-100" value="AWS Transit Gateway" style="text;strokeColor=none;align=center;fillColor=none;html=1;verticalAlign=middle;whiteSpace=wrap;rounded=0;" vertex="1" parent="1">
          <mxGeometry x="470" y="2010" width="140" height="30" as="geometry" />
        </mxCell>
        <mxCell id="Jq71nEJMqbB4D7MDqIDp-111" style="rounded=0;orthogonalLoop=1;jettySize=auto;html=1;strokeWidth=3;fillColor=#d5e8d4;strokeColor=#82b366;jumpStyle=gap;" edge="1" parent="1" source="Jq71nEJMqbB4D7MDqIDp-109" target="Jq71nEJMqbB4D7MDqIDp-68">
          <mxGeometry relative="1" as="geometry" />
        </mxCell>
        <mxCell id="Jq71nEJMqbB4D7MDqIDp-105" value="Public Subnet" style="sketch=0;outlineConnect=0;gradientColor=none;html=1;whiteSpace=wrap;fontSize=12;fontStyle=0;shape=mxgraph.aws4.group;grIcon=mxgraph.aws4.group_subnet;strokeColor=#879196;fillColor=none;verticalAlign=top;align=left;spacingLeft=30;fontColor=#879196;dashed=0;" vertex="1" parent="1">
          <mxGeometry x="1070" y="1879.75" width="140" height="110.5" as="geometry" />
        </mxCell>
        <mxCell id="Jq71nEJMqbB4D7MDqIDp-106" style="rounded=0;orthogonalLoop=1;jettySize=auto;html=1;exitX=1;exitY=0.5;exitDx=0;exitDy=0;exitPerimeter=0;fillColor=#d5e8d4;strokeColor=#82b366;strokeWidth=3;" edge="1" parent="1">
          <mxGeometry relative="1" as="geometry">
            <mxPoint x="789" y="1939" as="sourcePoint" />
            <mxPoint x="920" y="1938" as="targetPoint" />
          </mxGeometry>
        </mxCell>
        <mxCell id="Jq71nEJMqbB4D7MDqIDp-108" style="rounded=0;orthogonalLoop=1;jettySize=auto;html=1;exitX=1;exitY=0.5;exitDx=0;exitDy=0;exitPerimeter=0;fillColor=#d5e8d4;strokeColor=#82b366;strokeWidth=3;" edge="1" parent="1">
          <mxGeometry relative="1" as="geometry">
            <mxPoint x="978" y="1939" as="sourcePoint" />
            <mxPoint x="1109" y="1938" as="targetPoint" />
          </mxGeometry>
        </mxCell>
        <mxCell id="Jq71nEJMqbB4D7MDqIDp-109" value="" style="sketch=0;outlineConnect=0;fontColor=#232F3E;gradientColor=none;fillColor=#8C4FFF;strokeColor=none;dashed=0;verticalLabelPosition=bottom;verticalAlign=top;align=center;html=1;fontSize=12;fontStyle=0;aspect=fixed;pointerEvents=1;shape=mxgraph.aws4.nat_gateway;" vertex="1" parent="1">
          <mxGeometry x="1120" y="1910.75" width="58.5" height="58.5" as="geometry" />
        </mxCell>
        <mxCell id="Jq71nEJMqbB4D7MDqIDp-110" value="NAT Gateway" style="text;strokeColor=none;align=center;fillColor=none;html=1;verticalAlign=middle;whiteSpace=wrap;rounded=0;" vertex="1" parent="1">
          <mxGeometry x="1070" y="1968" width="140" height="30" as="geometry" />
        </mxCell>
        <mxCell id="Jq71nEJMqbB4D7MDqIDp-113" style="rounded=0;orthogonalLoop=1;jettySize=auto;html=1;exitX=0.5;exitY=0;exitDx=0;exitDy=0;exitPerimeter=0;" edge="1" parent="1" source="Jq71nEJMqbB4D7MDqIDp-112" target="Jq71nEJMqbB4D7MDqIDp-70">
          <mxGeometry relative="1" as="geometry" />
        </mxCell>
        <mxCell id="Jq71nEJMqbB4D7MDqIDp-112" value="" style="sketch=0;points=[[0,0,0],[0.25,0,0],[0.5,0,0],[0.75,0,0],[1,0,0],[0,1,0],[0.25,1,0],[0.5,1,0],[0.75,1,0],[1,1,0],[0,0.25,0],[0,0.5,0],[0,0.75,0],[1,0.25,0],[1,0.5,0],[1,0.75,0]];outlineConnect=0;fontColor=#232F3E;fillColor=#DD344C;strokeColor=#ffffff;dashed=0;verticalLabelPosition=bottom;verticalAlign=top;align=center;html=1;fontSize=12;fontStyle=0;aspect=fixed;shape=mxgraph.aws4.resourceIcon;resIcon=mxgraph.aws4.network_firewall;" vertex="1" parent="1">
          <mxGeometry x="911" y="2100" width="78" height="78" as="geometry" />
        </mxCell>
      </root>
    </mxGraphModel>
  </diagram>
</mxfile>
